<?xml version="1.0" encoding="UTF-8" ?>
<!DOCTYPE svg PUBLIC "-//W3C//DTD SVG 1.1//EN" "http://www.w3.org/Graphics/SVG/1.1/DTD/svg11.dtd">
<svg width="512pt" height="512pt" viewBox="0 0 512 512" version="1.1" xmlns="http://www.w3.org/2000/svg">
<g id="#000000ff">
<path fill="#505050" opacity="1.00" d=" M 254.39 0.00 L 258.36 0.00 C 276.49 0.65 294.44 6.96 308.66 18.28 C 324.87 30.95 336.25 49.65 339.87 69.92 C 341.60 78.83 341.34 87.95 341.34 96.98 C 341.35 160.85 341.33 224.73 341.35 288.60 C 352.52 299.03 362.35 311.04 369.30 324.71 C 388.00 359.75 388.76 403.69 371.29 439.37 C 353.74 476.55 317.16 504.04 276.48 510.24 C 270.24 511.39 263.90 511.62 257.59 512.00 L 254.44 512.00 C 219.80 511.54 185.59 496.54 162.21 470.91 C 138.54 445.71 125.94 410.50 128.40 375.99 C 130.13 342.73 146.03 310.86 170.65 288.59 C 170.66 224.40 170.65 160.21 170.66 96.03 C 170.64 87.30 170.46 78.50 172.13 69.90 C 175.76 49.65 187.13 30.96 203.32 18.29 C 217.74 6.82 236.00 0.46 254.39 0.00 M 236.61 47.49 C 226.42 52.62 218.51 62.10 215.29 73.04 C 213.65 77.86 213.50 83.01 213.34 88.05 C 213.38 160.01 213.30 231.97 213.37 303.93 C 213.19 305.43 213.89 307.37 212.45 308.43 C 204.51 315.79 195.86 322.51 189.14 331.08 C 171.13 353.33 165.89 384.98 175.42 411.93 C 181.77 430.41 194.73 446.51 211.40 456.68 C 228.71 467.42 249.96 471.52 270.03 468.11 C 289.07 465.03 306.89 455.14 319.67 440.71 C 332.62 426.28 340.37 407.31 341.18 387.93 C 342.18 367.36 335.47 346.47 322.40 330.52 C 315.49 321.83 306.56 315.11 298.58 307.47 C 298.76 234.66 298.59 161.84 298.67 89.02 C 298.70 81.38 297.78 73.55 294.23 66.67 C 289.37 56.63 280.39 48.65 269.79 45.12 C 259.03 41.32 246.73 42.23 236.61 47.49 Z" />
<path fill="#505050" opacity="1.00" d=" M 234.66 170.66 C 248.89 170.65 263.11 170.65 277.34 170.66 C 277.37 221.66 277.31 272.67 277.36 323.67 C 290.58 328.41 302.19 337.53 309.76 349.37 C 318.44 362.68 321.75 379.31 319.00 394.95 C 316.12 412.34 305.52 428.22 290.69 437.72 C 277.80 446.15 261.78 449.54 246.56 447.24 C 220.68 443.78 198.41 422.75 193.41 397.13 C 190.03 381.11 193.04 363.81 201.84 349.98 C 209.41 337.85 221.19 328.50 234.64 323.66 C 234.68 272.66 234.63 221.66 234.66 170.66 Z" />
</g>
</svg>
